<svg width="192" height="27" viewBox="0 0 192 27" fill="none" xmlns="http://www.w3.org/2000/svg">
<path d="M56 7.61504L40 0L24 7.61504V12.0983L40 19.7141L56 12.0983V7.61582V7.61504ZM40 15.2309L28.7121 9.85939L40 4.48791L51.2879 9.85939L40 15.2309Z" fill="white"/>
<path d="M43.4656 19.2992L45.5566 20.2902L39.9998 22.9331L34.503 20.319L36.5333 19.3568L32.2704 17.3367L30.251 18.2965V19.9119V22.35L39.9477 26.9454V26.9952L39.9998 26.9703L40.0512 26.9952V26.9454L49.7479 22.35V20.2583V18.2397L47.7285 17.2791L43.4656 19.2992Z" fill="white"/>
<path d="M24 18.32L27.3739 19.926V15.2746L24 13.6686V18.32Z" fill="#FFAA00"/>
<path d="M63.925 18.4976L68.65 7.99762H70.57L75.31 18.4976H73.27L69.205 9.03262H69.985L65.935 18.4976H63.925ZM66.1 16.0676L66.625 14.5376H72.295L72.82 16.0676H66.1ZM80.0671 18.6026C79.2271 18.6026 78.4771 18.4276 77.8171 18.0776C77.1671 17.7176 76.6571 17.2276 76.2871 16.6076C75.9171 15.9876 75.7321 15.2826 75.7321 14.4926C75.7321 13.6926 75.9171 12.9876 76.2871 12.3776C76.6571 11.7576 77.1671 11.2726 77.8171 10.9226C78.4771 10.5726 79.2271 10.3976 80.0671 10.3976C80.8471 10.3976 81.5321 10.5576 82.1221 10.8776C82.7221 11.1876 83.1771 11.6476 83.4871 12.2576L82.0471 13.0976C81.8071 12.7176 81.5121 12.4376 81.1621 12.2576C80.8221 12.0776 80.4521 11.9876 80.0521 11.9876C79.5921 11.9876 79.1771 12.0876 78.8071 12.2876C78.4371 12.4876 78.1471 12.7776 77.9371 13.1576C77.7271 13.5276 77.6221 13.9726 77.6221 14.4926C77.6221 15.0126 77.7271 15.4626 77.9371 15.8426C78.1471 16.2126 78.4371 16.4976 78.8071 16.6976C79.1771 16.8976 79.5921 16.9976 80.0521 16.9976C80.4521 16.9976 80.8221 16.9076 81.1621 16.7276C81.5121 16.5476 81.8071 16.2676 82.0471 15.8876L83.4871 16.7276C83.1771 17.3276 82.7221 17.7926 82.1221 18.1226C81.5321 18.4426 80.8471 18.6026 80.0671 18.6026ZM90.0429 18.4976V16.8776L89.9379 16.5326V13.6976C89.9379 13.1476 89.7729 12.7226 89.4429 12.4226C89.1129 12.1126 88.6129 11.9576 87.9429 11.9576C87.4929 11.9576 87.0479 12.0276 86.6079 12.1676C86.1779 12.3076 85.8129 12.5026 85.5129 12.7526L84.7779 11.3876C85.2079 11.0576 85.7179 10.8126 86.3079 10.6526C86.9079 10.4826 87.5279 10.3976 88.1679 10.3976C89.3279 10.3976 90.2229 10.6776 90.8529 11.2376C91.4929 11.7876 91.8129 12.6426 91.8129 13.8026V18.4976H90.0429ZM87.5229 18.6026C86.9229 18.6026 86.3979 18.5026 85.9479 18.3026C85.4979 18.0926 85.1479 17.8076 84.8979 17.4476C84.6579 17.0776 84.5379 16.6626 84.5379 16.2026C84.5379 15.7526 84.6429 15.3476 84.8529 14.9876C85.0729 14.6276 85.4279 14.3426 85.9179 14.1326C86.4079 13.9226 87.0579 13.8176 87.8679 13.8176H90.1929V15.0626H88.0029C87.3629 15.0626 86.9329 15.1676 86.7129 15.3776C86.4929 15.5776 86.3829 15.8276 86.3829 16.1276C86.3829 16.4676 86.5179 16.7376 86.7879 16.9376C87.0579 17.1376 87.4329 17.2376 87.9129 17.2376C88.3729 17.2376 88.7829 17.1326 89.1429 16.9226C89.5129 16.7126 89.7779 16.4026 89.9379 15.9926L90.2529 17.1176C90.0729 17.5876 89.7479 17.9526 89.2779 18.2126C88.8179 18.4726 88.2329 18.6026 87.5229 18.6026ZM97.6239 18.6026C96.8539 18.6026 96.1589 18.4326 95.5389 18.0926C94.9289 17.7426 94.4489 17.2626 94.0989 16.6526C93.7489 16.0426 93.5739 15.3226 93.5739 14.4926C93.5739 13.6626 93.7489 12.9426 94.0989 12.3326C94.4489 11.7226 94.9289 11.2476 95.5389 10.9076C96.1589 10.5676 96.8539 10.3976 97.6239 10.3976C98.2939 10.3976 98.8939 10.5476 99.4239 10.8476C99.9539 11.1376 100.374 11.5826 100.684 12.1826C100.994 12.7826 101.149 13.5526 101.149 14.4926C101.149 15.4226 100.999 16.1926 100.699 16.8026C100.399 17.4026 99.9839 17.8526 99.4539 18.1526C98.9239 18.4526 98.3139 18.6026 97.6239 18.6026ZM97.8489 16.9976C98.2989 16.9976 98.6989 16.8976 99.0489 16.6976C99.4089 16.4976 99.6939 16.2076 99.9039 15.8276C100.124 15.4476 100.234 15.0026 100.234 14.4926C100.234 13.9726 100.124 13.5276 99.9039 13.1576C99.6939 12.7776 99.4089 12.4876 99.0489 12.2876C98.6989 12.0876 98.2989 11.9876 97.8489 11.9876C97.3989 11.9876 96.9939 12.0876 96.6339 12.2876C96.2839 12.4876 95.9989 12.7776 95.7789 13.1576C95.5689 13.5276 95.4639 13.9726 95.4639 14.4926C95.4639 15.0026 95.5689 15.4476 95.7789 15.8276C95.9989 16.2076 96.2839 16.4976 96.6339 16.6976C96.9939 16.8976 97.3989 16.9976 97.8489 16.9976ZM100.279 18.4976V16.6076L100.354 14.4776L100.204 12.3476V7.36762H102.064V18.4976H100.279ZM108.297 18.6026C107.407 18.6026 106.627 18.4276 105.957 18.0776C105.297 17.7176 104.782 17.2276 104.412 16.6076C104.052 15.9876 103.872 15.2826 103.872 14.4926C103.872 13.6926 104.047 12.9876 104.397 12.3776C104.757 11.7576 105.247 11.2726 105.867 10.9226C106.497 10.5726 107.212 10.3976 108.012 10.3976C108.792 10.3976 109.487 10.5676 110.097 10.9076C110.707 11.2476 111.187 11.7276 111.537 12.3476C111.887 12.9676 112.062 13.6976 112.062 14.5376C112.062 14.6176 112.057 14.7076 112.047 14.8076C112.047 14.9076 112.042 15.0026 112.032 15.0926H105.357V13.8476H111.042L110.307 14.2376C110.317 13.7776 110.222 13.3726 110.022 13.0226C109.822 12.6726 109.547 12.3976 109.197 12.1976C108.857 11.9976 108.462 11.8976 108.012 11.8976C107.552 11.8976 107.147 11.9976 106.797 12.1976C106.457 12.3976 106.187 12.6776 105.987 13.0376C105.797 13.3876 105.702 13.8026 105.702 14.2826V14.5826C105.702 15.0626 105.812 15.4876 106.032 15.8576C106.252 16.2276 106.562 16.5126 106.962 16.7126C107.362 16.9126 107.822 17.0126 108.342 17.0126C108.792 17.0126 109.197 16.9426 109.557 16.8026C109.917 16.6626 110.237 16.4426 110.517 16.1426L111.522 17.2976C111.162 17.7176 110.707 18.0426 110.157 18.2726C109.617 18.4926 108.997 18.6026 108.297 18.6026ZM123.973 10.3976C124.613 10.3976 125.178 10.5226 125.668 10.7726C126.168 11.0226 126.558 11.4076 126.838 11.9276C127.118 12.4376 127.258 13.0976 127.258 13.9076V18.4976H125.383V14.1476C125.383 13.4376 125.228 12.9076 124.918 12.5576C124.608 12.2076 124.163 12.0326 123.583 12.0326C123.173 12.0326 122.808 12.1226 122.488 12.3026C122.178 12.4826 121.933 12.7476 121.753 13.0976C121.583 13.4476 121.498 13.8926 121.498 14.4326V18.4976H119.623V14.1476C119.623 13.4376 119.468 12.9076 119.158 12.5576C118.848 12.2076 118.403 12.0326 117.823 12.0326C117.413 12.0326 117.048 12.1226 116.728 12.3026C116.418 12.4826 116.173 12.7476 115.993 13.0976C115.823 13.4476 115.738 13.8926 115.738 14.4326V18.4976H113.863V10.4876H115.648V12.6176L115.333 11.9876C115.603 11.4676 115.993 11.0726 116.503 10.8026C117.023 10.5326 117.613 10.3976 118.273 10.3976C119.023 10.3976 119.673 10.5826 120.223 10.9526C120.783 11.3226 121.153 11.8826 121.333 12.6326L120.598 12.3776C120.858 11.7776 121.288 11.2976 121.888 10.9376C122.488 10.5776 123.183 10.3976 123.973 10.3976ZM130.167 21.5126C129.777 21.5126 129.387 21.4476 128.997 21.3176C128.607 21.1876 128.282 21.0076 128.022 20.7776L128.772 19.3976C128.962 19.5676 129.177 19.7026 129.417 19.8026C129.657 19.9026 129.902 19.9526 130.152 19.9526C130.492 19.9526 130.767 19.8676 130.977 19.6976C131.187 19.5276 131.382 19.2426 131.562 18.8426L132.027 17.7926L132.177 17.5676L135.207 10.4876H137.007L133.257 19.1426C133.007 19.7426 132.727 20.2176 132.417 20.5676C132.117 20.9176 131.777 21.1626 131.397 21.3026C131.027 21.4426 130.617 21.5126 130.167 21.5126ZM131.817 18.7826L128.202 10.4876H130.152L133.092 17.4026L131.817 18.7826Z" fill="white"/>
</svg>
