<svg width="32" height="27" viewBox="0 0 32 27" fill="none" xmlns="http://www.w3.org/2000/svg">
<path d="M32 7.61504L16 0L0 7.61504V12.0983L16 19.7141L32 12.0983V7.61582V7.61504ZM16 15.2309L4.71211 9.85939L16 4.48791L27.2879 9.85939L16 15.2309Z" fill="white"/>
<path d="M19.4666 19.2994L21.5576 20.2904L16.0008 22.9334L10.504 20.3192L12.5343 19.3571L8.27133 17.3369L6.25195 18.2968V19.9121V22.3503L15.9486 26.9456V26.9955L16.0008 26.9705L16.0522 26.9955V26.9456L25.7489 22.3503V20.2585V18.2399L23.7295 17.2793L19.4666 19.2994Z" fill="white"/>
<path d="M0 18.3203L3.3739 19.9263V15.2749L0 13.6689V18.3203Z" fill="#FFAA00"/>
</svg>
