<svg width="20" height="20" viewBox="0 0 20 20" fill="none" xmlns="http://www.w3.org/2000/svg">
<path d="M10 2C10.5312 2 11 2.46875 11 3V3.5625C13.25 3.9375 15 5.90625 15 8.25V9.3125C15 10.7188 15.4688 12.0938 16.3438 13.2188L16.8125 13.7812C17 14.0312 17.0312 14.3438 16.9062 14.5938C16.7812 14.8438 16.5312 15 16.25 15H3.75C3.4375 15 3.1875 14.8438 3.0625 14.5938C2.9375 14.3438 2.96875 14.0312 3.15625 13.7812L3.625 13.2188C4.5 12.0938 5 10.7188 5 9.3125V8.25C5 5.90625 6.71875 3.9375 9 3.5625V3C9 2.46875 9.4375 2 10 2ZM10 5H9.75C7.9375 5 6.5 6.46875 6.5 8.25V9.3125C6.5 10.8125 6.0625 12.25 5.25 13.5H14.7188C13.9062 12.25 13.5 10.8125 13.5 9.3125V8.25C13.5 6.46875 12.0312 5 10.25 5H10ZM12 16C12 16.5312 11.7812 17.0625 11.4062 17.4375C11.0312 17.8125 10.5312 18 10 18C9.46875 18 8.9375 17.8125 8.5625 17.4375C8.1875 17.0625 8 16.5312 8 16H10H12Z" fill="white"/>
</svg>
