<?xml version="1.0" standalone="no"?>
<!DOCTYPE svg PUBLIC "-//W3C//DTD SVG 20010904//EN"
 "http://www.w3.org/TR/2001/REC-SVG-20010904/DTD/svg10.dtd">
<svg version="1.0" xmlns="http://www.w3.org/2000/svg"
 width="180.000000pt" height="180.000000pt" viewBox="0 0 180.000000 180.000000"
 preserveAspectRatio="xMidYMid meet">

<g transform="translate(0.000000,180.000000) scale(0.100000,-0.100000)"
fill="#000000" stroke="none">
<path d="M702 1348 l3 -213 213 -3 214 -2 203 207 c112 115 201 211 198 216
-2 4 -191 7 -419 7 l-414 0 2 -212z"/>
<path d="M535 1448 c-115 -104 -292 -267 -312 -286 -11 -11 -13 -90 -11 -425
l3 -412 102 -3 102 -3 3 88 3 88 59 3 c44 2 57 0 54 -10 -3 -8 -24 -14 -51
-16 -38 -3 -47 -7 -47 -22 0 -15 9 -19 42 -22 59 -4 63 -28 4 -28 -42 0 -46
-2 -46 -25 0 -26 4 -27 73 -29 15 -1 31 -7 36 -14 5 -8 16 0 34 29 33 49 33
61 5 99 -31 42 -12 52 21 12 l27 -34 26 34 c35 44 48 28 15 -19 -28 -39 -26
-49 14 -102 l19 -23 8 23 c44 121 56 149 67 149 7 0 28 -39 47 -88 30 -77 37
-87 61 -90 l27 -3 0 75 c0 69 -2 75 -22 78 -12 2 -23 9 -26 16 -3 9 14 12 63
12 49 0 66 -3 63 -13 -3 -6 -14 -13 -26 -15 -20 -3 -22 -9 -22 -78 l0 -75 27
3 c24 3 30 12 57 91 22 64 34 87 45 85 9 -2 28 -38 47 -88 l32 -85 58 -3 59
-3 60 73 c131 160 185 227 185 232 0 3 -192 7 -427 8 l-428 3 -3 453 c-2 352
-5 452 -15 451 -6 0 -57 -41 -112 -91z"/>
<path d="M700 880 l0 -210 215 0 214 0 200 203 c109 111 203 205 207 210 4 4
-182 7 -414 7 l-422 0 0 -210z"/>
<path d="M772 431 c-15 -43 -15 -41 7 -41 27 0 31 10 17 45 l-12 30 -12 -34z"/>
<path d="M1066 438 c-10 -38 -7 -48 15 -48 18 0 20 4 14 28 -9 39 -21 47 -29
20z"/>
<path d="M612 358 l-21 -33 24 -3 c14 -2 34 -2 44 0 18 3 18 5 -4 36 l-23 33
-20 -33z"/>
<path d="M746 354 c-11 -29 -6 -34 39 -34 45 0 50 5 39 34 -8 22 -70 22 -78 0z"/>
<path d="M1040 361 c0 -5 -3 -16 -6 -25 -5 -13 3 -16 46 -16 43 0 51 3 46 16
-3 9 -6 20 -6 25 0 5 -18 9 -40 9 -22 0 -40 -4 -40 -9z"/>
</g>
</svg>
